<svg xmlns="http://www.w3.org/2000/svg" width="1280" height="360" viewBox="0 0 1280 360" role="img" aria-labelledby="title desc">
  <title id="title">Jubilee mode — code in color</title>
  <desc id="desc">An original neon graphic with colorful energy bursts.</desc>
  <defs>
    <linearGradient id="bg" x1="0" y1="0" x2="1" y2="1"><stop stop-color="#16002d"/><stop offset=".55" stop-color="#090019"/><stop offset="1" stop-color="#001d35"/></linearGradient>
    <filter id="glow"><feGaussianBlur stdDeviation="5" result="b"/><feMerge><feMergeNode in="b"/><feMergeNode in="SourceGraphic"/></feMerge></filter>
  </defs>
  <rect width="1280" height="360" rx="28" fill="url(#bg)"/>
  <g fill="none" stroke-linecap="round" filter="url(#glow)">
    <path d="M115 250 230 130M165 305 265 95M85 155 300 245M930 70l100 125m-40-165 38 205m-135-90 210 35M1080 260l95-105m-30 150 10-205" stroke="#00f6ff" stroke-width="6"/>
    <path d="M115 250 300 245M165 305 265 95M930 70l175 75m-115-115 78 205M1080 260l65-110" stroke="#ff2bbf" stroke-width="4"/>
    <path d="M85 155 265 95M893 145l137 50m50 65 95-105" stroke="#ffe600" stroke-width="3"/>
  </g>
  <g font-family="Arial, sans-serif" text-anchor="middle">
    <text x="640" y="145" fill="#ffe600" font-size="22" font-weight="700" letter-spacing="7">✦ MUTANT DEVELOPER FILE ✦</text>
    <text x="640" y="218" fill="#fff" font-size="64" font-weight="800" letter-spacing="3">JUBILEE MODE</text>
    <text x="640" y="270" fill="#00f6ff" font-size="24" letter-spacing="5">CODE IN COLOR · SHIP WITH SPARKS</text>
  </g>
</svg>